HIERARCHY
ROOT Hips
{
	OFFSET 0.000000 87.230942 0.000000
	CHANNELS 6 Xposition Yposition Zposition Xrotation Yrotation Zrotation
	JOINT Pelvis
	{
		OFFSET 0.000000 0.000000 0.000000
		CHANNELS 3 Xrotation Yrotation Zrotation
		JOINT LeftUpLeg
		{
			OFFSET 12.017000 -9.376404 -2.439400
			CHANNELS 3 Xrotation Yrotation Zrotation
			JOINT LeftLeg
			{
				OFFSET -0.007312 -32.846973 2.110600
				CHANNELS 3 Xrotation Yrotation Zrotation
				JOINT LeftFoot
				{
					OFFSET 0.007312 -32.065170 -0.570400
					CHANNELS 3 Xrotation Yrotation Zrotation
					JOINT LeftToeBase
					{
						OFFSET 0.728300 -11.045900 13.180700
						CHANNELS 3 Xrotation Yrotation Zrotation
						End Site
						{
							OFFSET 0.000000 17.212589 0.000000
						}
					}
				}
				JOINT LeftPantLeg
				{
					OFFSET 0.002788 -16.709013 -3.143600
					CHANNELS 3 Xrotation Yrotation Zrotation
					End Site
					{
						OFFSET -0.605125 24.528742 0.000000
					}
				}
			}
			JOINT Left_Butt
			{
				OFFSET -6.630234 1.326584 -3.183700
				CHANNELS 3 Xrotation Yrotation Zrotation
				End Site
				{
					OFFSET -0.498041 20.188049 0.000000
				}
			}
		}
		JOINT RightUpLeg
		{
			OFFSET -11.717000 -9.376404 -2.439400
			CHANNELS 3 Xrotation Yrotation Zrotation
			JOINT RightLeg
			{
				OFFSET -0.003241 -32.846912 2.110600
				CHANNELS 3 Xrotation Yrotation Zrotation
				JOINT RightFoot
				{
					OFFSET 0.003241 -32.065136 -0.570500
					CHANNELS 3 Xrotation Yrotation Zrotation
					JOINT RightToeBase
					{
						OFFSET -0.728300 -11.045901 13.180700
						CHANNELS 3 Xrotation Yrotation Zrotation
						End Site
						{
							OFFSET 0.000000 17.212593 0.000000
						}
					}
				}
				JOINT RightPantLeg
				{
					OFFSET 0.008142 -16.708982 -3.143700
					CHANNELS 3 Xrotation Yrotation Zrotation
					End Site
					{
						OFFSET 0.605088 24.528715 0.000000
					}
				}
			}
			JOINT Right_Butt
			{
				OFFSET 6.630732 1.326584 -3.183700
				CHANNELS 3 Xrotation Yrotation Zrotation
				End Site
				{
					OFFSET 0.498015 20.188240 0.000000
				}
			}
		}
	}
	JOINT Spine
	{
		OFFSET -0.062400 7.848404 3.918300
		CHANNELS 3 Xrotation Yrotation Zrotation
		JOINT Spine1
		{
			OFFSET -0.072800 11.422302 0.713400
			CHANNELS 3 Xrotation Yrotation Zrotation
			JOINT Spine2
			{
				OFFSET -0.083200 13.054001 -1.931600
				CHANNELS 3 Xrotation Yrotation Zrotation
				JOINT Neck
				{
					OFFSET -0.092200 14.121796 -5.138800
					CHANNELS 3 Xrotation Yrotation Zrotation
					JOINT Head
					{
						OFFSET 0.000200 10.447403 -0.842000
						CHANNELS 3 Xrotation Yrotation Zrotation
						JOINT Visor
						{
							OFFSET 0.457100 25.671204 16.550400
							CHANNELS 3 Xrotation Yrotation Zrotation
							End Site
							{
								OFFSET 0.000000 26.061493 0.000000
							}
						}
						JOINT HairMidA
						{
							OFFSET 0.459400 31.585403 8.437400
							CHANNELS 3 Xrotation Yrotation Zrotation
							End Site
							{
								OFFSET 0.000000 26.061493 0.000000
							}
						}
						JOINT HairMidB
						{
							OFFSET 0.464000 33.309204 -8.389700
							CHANNELS 3 Xrotation Yrotation Zrotation
							End Site
							{
								OFFSET 0.000000 26.061493 0.000000
							}
						}
						JOINT HairMidC
						{
							OFFSET 0.466600 27.991196 -17.375099
							CHANNELS 3 Xrotation Yrotation Zrotation
							End Site
							{
								OFFSET 0.000000 26.061493 0.000000
							}
						}
						JOINT HairMidD
						{
							OFFSET 0.467700 17.888092 -21.169500
							CHANNELS 3 Xrotation Yrotation Zrotation
							End Site
							{
								OFFSET 0.000000 26.061493 0.000000
							}
						}
						JOINT HairMidE
						{
							OFFSET 5.325700 3.514603 -14.369699
							CHANNELS 3 Xrotation Yrotation Zrotation
							End Site
							{
								OFFSET 0.000000 26.061493 0.000000
							}
						}
						JOINT HairMidF
						{
							OFFSET -4.394100 3.514603 -14.372400
							CHANNELS 3 Xrotation Yrotation Zrotation
							End Site
							{
								OFFSET 0.000000 26.061493 0.000000
							}
						}
						JOINT HairLeftA
						{
							OFFSET 15.319900 25.746506 2.623300
							CHANNELS 3 Xrotation Yrotation Zrotation
							End Site
							{
								OFFSET 0.000000 26.061493 0.000000
							}
						}
						JOINT HairLeftB
						{
							OFFSET 12.619500 29.289398 -8.731499
							CHANNELS 3 Xrotation Yrotation Zrotation
							End Site
							{
								OFFSET 0.000000 26.061493 0.000000
							}
						}
						JOINT HairLeftC
						{
							OFFSET 15.714800 15.959900 2.909800
							CHANNELS 3 Xrotation Yrotation Zrotation
							End Site
							{
								OFFSET 0.000000 26.061493 0.000000
							}
						}
						JOINT HairLeftD
						{
							OFFSET 16.101700 18.437408 -7.553200
							CHANNELS 3 Xrotation Yrotation Zrotation
							End Site
							{
								OFFSET 0.000000 26.061493 0.000000
							}
						}
						JOINT HairLeftE
						{
							OFFSET 9.731900 17.915009 -18.316799
							CHANNELS 3 Xrotation Yrotation Zrotation
							End Site
							{
								OFFSET 0.000000 26.061493 0.000000
							}
						}
						JOINT HairLeftF
						{
							OFFSET 11.204300 4.953598 -9.668100
							CHANNELS 3 Xrotation Yrotation Zrotation
							End Site
							{
								OFFSET 0.000000 26.061493 0.000000
							}
						}
						JOINT HairRightA
						{
							OFFSET -14.397900 25.746307 2.615100
							CHANNELS 3 Xrotation Yrotation Zrotation
							End Site
							{
								OFFSET 0.000000 26.061493 0.000000
							}
						}
						JOINT HairRightB
						{
							OFFSET -11.691200 29.289200 -8.738199
							CHANNELS 3 Xrotation Yrotation Zrotation
							End Site
							{
								OFFSET 0.000000 26.061493 0.000000
							}
						}
						JOINT HairRightC
						{
							OFFSET -14.792900 15.959702 2.901400
							CHANNELS 3 Xrotation Yrotation Zrotation
							End Site
							{
								OFFSET 0.000000 26.061493 0.000000
							}
						}
						JOINT HairRightD
						{
							OFFSET -15.174000 18.437195 -7.561900
							CHANNELS 3 Xrotation Yrotation Zrotation
							End Site
							{
								OFFSET 0.000000 26.061493 0.000000
							}
						}
						JOINT HairRightE
						{
							OFFSET -8.798200 17.914902 -18.322001
							CHANNELS 3 Xrotation Yrotation Zrotation
							End Site
							{
								OFFSET 0.000000 26.061493 0.000000
							}
						}
						JOINT HairRightF
						{
							OFFSET -10.275200 4.953506 -9.674099
							CHANNELS 3 Xrotation Yrotation Zrotation
							End Site
							{
								OFFSET 0.000000 26.061493 0.000000
							}
						}
					}
				}
				JOINT LeftShoulder
				{
					OFFSET 5.133500 7.341202 -1.867600
					CHANNELS 3 Xrotation Yrotation Zrotation
					JOINT LeftArm
					{
						OFFSET 8.072663 0.936867 -2.176600
						CHANNELS 3 Xrotation Yrotation Zrotation
						JOINT LeftForeArm
						{
							OFFSET 31.271999 0.000000 0.000000
							CHANNELS 3 Xrotation Yrotation Zrotation
							JOINT LeftHand
							{
								OFFSET 31.771030 0.000000 0.000000
								CHANNELS 3 Xrotation Yrotation Zrotation
								JOINT LeftHandThumb1
								{
									OFFSET 2.886520 -2.557846 4.416640
									CHANNELS 3 Xrotation Yrotation Zrotation
									JOINT LeftHandThumb2
									{
										OFFSET 2.371025 -1.368912 1.368911
										CHANNELS 3 Xrotation Yrotation Zrotation
										JOINT LeftHandThumb3
										{
											OFFSET 2.243378 -1.295212 1.295213
											CHANNELS 3 Xrotation Yrotation Zrotation
											End Site
											{
												OFFSET -0.332611 2.876945 0.020015
											}
										}
									}
								}
								JOINT LeftHandIndex1
								{
									OFFSET 8.568985 -0.641945 3.119977
									CHANNELS 3 Xrotation Yrotation Zrotation
									JOINT LeftHandIndex2
									{
										OFFSET 3.348503 0.000000 0.000000
										CHANNELS 3 Xrotation Yrotation Zrotation
										JOINT LeftHandIndex3
										{
											OFFSET 3.314552 0.000000 0.000000
											CHANNELS 3 Xrotation Yrotation Zrotation
											End Site
											{
												OFFSET -1.032898 3.075485 0.678796
											}
										}
									}
								}
								JOINT LeftHandMiddle1
								{
									OFFSET 8.124603 0.000000 0.000000
									CHANNELS 3 Xrotation Yrotation Zrotation
									JOINT LeftHandMiddle2
									{
										OFFSET 4.166275 0.000000 0.000000
										CHANNELS 3 Xrotation Yrotation Zrotation
										JOINT LeftHandMiddle3
										{
											OFFSET 3.018135 0.000000 0.000000
											CHANNELS 3 Xrotation Yrotation Zrotation
											End Site
											{
												OFFSET -1.032700 2.767982 0.617226
											}
										}
									}
								}
								JOINT LeftHandRing1
								{
									OFFSET 8.571686 -0.031357 -2.884048
									CHANNELS 3 Xrotation Yrotation Zrotation
									JOINT LeftHandRing2
									{
										OFFSET 3.671181 0.000000 0.000000
										CHANNELS 3 Xrotation Yrotation Zrotation
										JOINT LeftHandRing3
										{
											OFFSET 2.728851 0.000000 0.000000
											CHANNELS 3 Xrotation Yrotation Zrotation
											End Site
											{
												OFFSET -0.815796 2.539223 0.577389
											}
										}
									}
								}
								JOINT LeftHandPinky1
								{
									OFFSET 7.854515 -0.675232 -5.213020
									CHANNELS 3 Xrotation Yrotation Zrotation
									JOINT LeftHandPinky2
									{
										OFFSET 3.068596 0.000000 0.000000
										CHANNELS 3 Xrotation Yrotation Zrotation
										JOINT LeftHandPinky3
										{
											OFFSET 2.396042 0.000000 0.000000
											CHANNELS 3 Xrotation Yrotation Zrotation
											End Site
											{
												OFFSET -0.524597 2.267998 0.567429
											}
										}
									}
								}
							}
							JOINT LeftSleeve
							{
								OFFSET 19.684509 -0.200119 0.476146
								CHANNELS 3 Xrotation Yrotation Zrotation
								End Site
								{
									OFFSET -0.031017 25.731133 -0.002868
								}
							}
						}
					}
				}
				JOINT RightShoulder
				{
					OFFSET -4.395900 7.341202 -1.870200
					CHANNELS 3 Xrotation Yrotation Zrotation
					JOINT RightArm
					{
						OFFSET -8.071453 0.936867 -2.181100
						CHANNELS 3 Xrotation Yrotation Zrotation
						JOINT RightForeArm
						{
							OFFSET -31.272011 0.000000 0.000000
							CHANNELS 3 Xrotation Yrotation Zrotation
							JOINT RightHand
							{
								OFFSET -31.771019 0.000000 0.000000
								CHANNELS 3 Xrotation Yrotation Zrotation
								JOINT RightHandThumb1
								{
									OFFSET -2.886520 -2.557808 4.416626
									CHANNELS 3 Xrotation Yrotation Zrotation
									JOINT RightHandThumb2
									{
										OFFSET -2.371056 -1.368927 1.368928
										CHANNELS 3 Xrotation Yrotation Zrotation
										JOINT RightHandThumb3
										{
											OFFSET -2.243362 -1.295204 1.295206
											CHANNELS 3 Xrotation Yrotation Zrotation
											End Site
											{
												OFFSET 0.332642 2.876938 0.020047
											}
										}
									}
								}
								JOINT RightHandIndex1
								{
									OFFSET -8.568993 -0.641953 3.120017
									CHANNELS 3 Xrotation Yrotation Zrotation
									JOINT RightHandIndex2
									{
										OFFSET -3.348518 0.000000 0.000000
										CHANNELS 3 Xrotation Yrotation Zrotation
										JOINT RightHandIndex3
										{
											OFFSET -3.314552 0.000000 0.000000
											CHANNELS 3 Xrotation Yrotation Zrotation
											End Site
											{
												OFFSET 1.032898 3.075478 0.678804
											}
										}
									}
								}
								JOINT RightHandMiddle1
								{
									OFFSET -8.124588 0.000000 0.000000
									CHANNELS 3 Xrotation Yrotation Zrotation
									JOINT RightHandMiddle2
									{
										OFFSET -4.166275 0.000000 0.000000
										CHANNELS 3 Xrotation Yrotation Zrotation
										JOINT RightHandMiddle3
										{
											OFFSET -3.018097 0.000000 0.000000
											CHANNELS 3 Xrotation Yrotation Zrotation
											End Site
											{
												OFFSET 1.032700 2.767937 0.617197
											}
										}
									}
								}
								JOINT RightHandRing1
								{
									OFFSET -8.571747 -0.031349 -2.884061
									CHANNELS 3 Xrotation Yrotation Zrotation
									JOINT RightHandRing2
									{
										OFFSET -3.671204 0.000000 0.000000
										CHANNELS 3 Xrotation Yrotation Zrotation
										JOINT RightHandRing3
										{
											OFFSET -2.728874 0.000000 0.000000
											CHANNELS 3 Xrotation Yrotation Zrotation
											End Site
											{
												OFFSET 0.815804 2.539261 0.577413
											}
										}
									}
								}
								JOINT RightHandPinky1
								{
									OFFSET -7.854561 -0.675247 -5.212970
									CHANNELS 3 Xrotation Yrotation Zrotation
									JOINT RightHandPinky2
									{
										OFFSET -3.068550 0.000000 0.000000
										CHANNELS 3 Xrotation Yrotation Zrotation
										JOINT RightHandPinky3
										{
											OFFSET -2.395981 0.000000 0.000000
											CHANNELS 3 Xrotation Yrotation Zrotation
											End Site
											{
												OFFSET 0.524605 2.267952 0.567413
											}
										}
									}
								}
							}
							JOINT RightSleeve
							{
								OFFSET -19.684753 -0.200165 0.476065
								CHANNELS 3 Xrotation Yrotation Zrotation
								End Site
								{
									OFFSET 0.031342 25.731255 -0.002917
								}
							}
						}
					}
				}
				JOINT Hood
				{
					OFFSET 0.369700 14.447800 -5.317800
					CHANNELS 3 Xrotation Yrotation Zrotation
					JOINT Hood1
					{
						OFFSET 0.001700 -5.553802 -5.895100
						CHANNELS 3 Xrotation Yrotation Zrotation
						JOINT Hood2
						{
							OFFSET -0.000200 -8.380501 0.763600
							CHANNELS 3 Xrotation Yrotation Zrotation
							End Site
							{
								OFFSET 0.000000 8.415215 0.000000
							}
						}
					}
				}
				JOINT Left_Breast
				{
					OFFSET 5.682500 3.120102 3.188800
					CHANNELS 3 Xrotation Yrotation Zrotation
					End Site
					{
						OFFSET 0.000000 10.528564 0.000000
					}
				}
				JOINT Right_Breast
				{
					OFFSET -4.947600 3.120102 3.185900
					CHANNELS 3 Xrotation Yrotation Zrotation
					End Site
					{
						OFFSET 0.000000 10.528564 0.000000
					}
				}
				JOINT Whistle
				{
					OFFSET 0.368200 11.471298 0.095400
					CHANNELS 3 Xrotation Yrotation Zrotation
					JOINT Whistle1
					{
						OFFSET -0.002000 -6.349899 7.479800
						CHANNELS 3 Xrotation Yrotation Zrotation
						JOINT Whistle2
						{
							OFFSET -0.001300 -8.217598 4.717600
							CHANNELS 3 Xrotation Yrotation Zrotation
							End Site
							{
								OFFSET 0.000000 9.475479 0.000000
							}
						}
					}
				}
			}
		}
		JOINT Belly
		{
			OFFSET 0.212400 1.593002 3.163700
			CHANNELS 3 Xrotation Yrotation Zrotation
			End Site
			{
				OFFSET 0.000000 7.496635 0.000000
			}
		}
	}
	JOINT FitGrandmaFacialAnim_Joint
	{
		OFFSET 1.150000 -86.211197 -1.220100
		CHANNELS 3 Xrotation Yrotation Zrotation
		End Site
		{
			OFFSET 0.000000 31.666618 0.000000
		}
	}
}
MOTION
Frames: 4
Frame Time: 0.016667
-2.596026 73.169403 1.968959 11.676242 -49.425943 11.279152 -0.000000 0.000001 -0.000000 -62.309999 28.878053 43.416729 47.637366 -21.391374 3.308767 -2.466677 1.388797 -10.658644 0.000000 0.000002 -0.000000 -0.000000 0.000003 -0.000002 -0.000001 0.000000 0.000000 -29.833853 -1.493177 -26.649574 55.567803 3.695283 -6.881580 -32.974258 -4.594553 25.476829 0.000000 -0.000003 -0.000000 -0.000000 -0.000004 0.000003 -0.000000 -0.000002 -0.000000 10.970431 2.772299 -2.041692 6.100710 5.566541 -4.284695 -5.786919 6.328135 -3.046185 2.317271 9.363503 -0.265713 -4.145191 23.161793 -3.522659 -0.000000 0.000000 -0.000000 -0.000000 0.000000 -0.000000 -0.000000 0.000000 -0.000000 -0.000000 0.000000 -0.000000 -0.000000 0.000000 -0.000000 -0.000000 0.000000 -0.000000 -0.000000 0.000000 -0.000000 -0.000000 0.000000 -0.000000 -0.000000 0.000000 -0.000000 -0.000000 0.000000 -0.000000 -0.000000 0.000000 -0.000000 -0.000000 0.000000 -0.000000 -0.000000 0.000000 -0.000000 -0.000000 0.000000 -0.000000 -0.000000 0.000000 -0.000000 -0.000000 0.000000 -0.000000 -0.000000 0.000000 -0.000000 -0.000000 0.000000 -0.000000 -0.000000 0.000000 -0.000000 -1.915074 -16.511783 -2.939001 -10.486672 2.625051 -45.366349 -22.934662 -26.042277 -16.052427 2.486706 -2.421344 6.911742 18.458429 -9.511675 13.216062 -1.151046 11.255610 -8.390537 0.000001 -0.000002 0.000003 -1.232386 -5.767198 -0.192340 0.133061 -0.208734 -4.601646 -0.000001 0.000000 0.000001 1.879045 4.660584 -4.596736 0.488057 -1.011718 -12.986304 -0.000001 0.000001 0.000001 3.021265 7.938963 -14.103001 -0.721410 -0.564634 -18.895741 0.000003 0.000000 0.000002 2.009203 6.305993 -22.386389 -0.833137 -0.206649 -16.746476 -0.000002 0.000003 -0.000000 0.000003 -0.000002 0.000001 -5.102371 24.651553 1.530439 6.852342 -35.149967 57.689239 -21.079533 44.888939 20.017017 -0.116058 35.721200 7.538538 55.149563 18.649536 -29.698267 -0.442583 -14.180526 7.313131 0.000002 0.000002 -0.000000 5.673361 7.585035 36.844188 1.050489 3.824470 68.900237 -0.000001 0.000001 -0.000000 -0.125691 1.886111 45.000780 -1.169017 3.204648 68.417636 -0.000002 0.000000 -0.000000 -5.312005 1.216637 58.508835 -0.745213 1.667579 48.011292 0.000002 -0.000003 0.000002 -7.756834 -9.376473 47.264014 -0.526032 1.541574 45.600522 0.000001 -0.000002 0.000003 0.000001 0.000004 -0.000003 0.000001 -0.000000 0.000000 0.000001 -0.000000 0.000000 0.000001 -0.000000 0.000000 0.000001 -0.000000 0.000000 0.000001 -0.000000 0.000000 0.000001 -0.000000 0.000000 -0.000001 -0.000001 -0.000000 -0.000001 -0.000001 -0.000000 0.000001 0.000001 -0.000001 -0.000000 0.000001 -0.000000 
-2.363034 73.264320 1.841616 11.716998 -49.308543 11.103370 -0.000000 -0.000000 0.000000 -62.502453 28.831140 43.335809 47.247987 -21.479905 3.274381 -2.043184 1.405465 -10.505809 -0.000000 0.000000 0.000000 -0.000000 -0.000001 0.000001 -0.000002 0.000001 -0.000001 -29.843204 -1.515520 -26.294123 55.240743 3.436684 -6.968964 -32.710425 -4.753506 25.578864 0.000000 -0.000002 0.000000 -0.000002 0.000005 0.000003 0.000002 -0.000001 0.000001 10.653266 2.810368 -1.715307 6.270515 5.497057 -4.598451 -5.595392 6.320230 -3.336132 2.640499 9.509907 -0.611379 -4.329306 23.155528 -3.472936 0.000001 0.000000 -0.000000 0.000001 0.000000 -0.000000 0.000001 0.000000 -0.000000 0.000001 0.000000 -0.000000 0.000001 0.000000 -0.000000 0.000001 0.000000 -0.000000 0.000001 0.000000 -0.000000 0.000001 0.000000 -0.000000 0.000001 0.000000 -0.000000 0.000001 0.000000 -0.000000 0.000001 0.000000 -0.000000 0.000001 0.000000 -0.000000 0.000001 0.000000 -0.000000 0.000001 0.000000 -0.000000 0.000001 0.000000 -0.000000 0.000001 0.000000 -0.000000 0.000001 0.000000 -0.000000 0.000001 0.000000 -0.000000 0.000001 0.000000 -0.000000 -1.910395 -16.163890 -3.090428 -12.030265 0.880606 -45.319166 -21.770886 -23.471151 -14.157620 2.477856 -3.270597 5.936782 18.463948 -9.514414 13.212501 -1.112715 11.306118 -8.396355 0.000000 -0.000000 0.000000 -1.232412 -5.775702 -0.414997 0.131544 -0.226381 -4.993307 -0.000001 0.000001 0.000003 1.878189 4.643286 -4.856699 0.484480 -1.023661 -13.186641 -0.000000 -0.000001 -0.000001 3.018619 7.917243 -14.361895 -0.723411 -0.572762 -19.096340 -0.000001 0.000000 -0.000002 2.005589 6.286236 -22.645472 -0.834532 -0.216355 -16.947021 -0.000000 0.000004 0.000003 0.000001 0.000002 -0.000002 -5.012406 24.293286 1.216168 6.254668 -34.836461 57.425628 -21.507374 44.701160 20.437174 -0.231533 33.998414 6.851874 55.149570 18.649534 -29.698267 -0.442580 -14.180526 7.313131 -0.000000 0.000001 0.000000 5.673360 7.585037 36.844188 1.050489 3.824471 68.900244 -0.000003 -0.000000 0.000005 -0.125694 1.886113 45.000773 -1.169015 3.204656 68.417636 0.000001 0.000001 -0.000005 -5.312008 1.216640 58.508835 -0.745212 1.667575 48.011288 0.000000 -0.000000 -0.000001 -7.756837 -9.376475 47.264011 -0.526033 1.541572 45.600522 -0.000001 0.000000 -0.000003 -0.000002 -0.000001 0.000004 -0.000000 0.000000 -0.000000 -0.000000 0.000000 -0.000000 -0.000000 0.000000 -0.000000 -0.000000 0.000000 -0.000000 -0.000000 0.000000 -0.000000 -0.000001 0.000000 -0.000000 -0.000001 -0.000002 0.000000 -0.000001 -0.000002 0.000000 -0.000001 0.000000 -0.000000 -0.000000 -0.000000 0.000000 
-2.133868 73.365417 1.639414 11.558775 -49.262603 11.006226 -0.000000 -0.000001 -0.000000 -62.382426 29.046698 43.107373 46.636655 -21.640163 3.220259 -1.521960 1.530510 -10.403548 0.000000 -0.000002 -0.000000 0.000000 -0.000004 -0.000001 -0.000002 0.000000 -0.000000 -29.903320 -1.447027 -26.174475 55.148047 3.464053 -7.060537 -32.593103 -4.930783 25.511306 -0.000000 0.000000 0.000000 -0.000000 -0.000003 0.000002 0.000003 0.000001 0.000000 10.771451 2.733255 -1.862730 6.253145 5.455823 -4.730129 -5.604861 6.319123 -3.448270 2.918543 9.797427 -0.772800 -4.285428 23.230979 -3.582200 0.000000 -0.000000 -0.000000 0.000000 -0.000000 -0.000000 0.000000 -0.000000 -0.000000 0.000000 -0.000000 -0.000000 0.000000 -0.000000 -0.000000 0.000000 -0.000000 -0.000000 0.000000 -0.000000 -0.000000 0.000000 -0.000000 -0.000000 0.000000 -0.000000 -0.000000 0.000000 -0.000000 -0.000000 0.000000 -0.000000 -0.000000 0.000000 -0.000000 -0.000000 0.000000 -0.000000 -0.000000 0.000000 -0.000000 -0.000000 0.000000 -0.000000 -0.000000 0.000000 -0.000000 -0.000000 0.000000 -0.000000 -0.000000 0.000000 -0.000000 -0.000000 0.000000 -0.000000 -0.000000 -1.950324 -16.377037 -3.316427 -12.793729 0.478070 -45.036181 -20.515383 -22.352260 -13.137819 2.462306 -3.387154 5.660577 18.481158 -9.516269 13.200820 -1.002063 11.451878 -8.413324 0.000002 0.000001 -0.000000 -1.232753 -5.800259 -1.059699 0.126481 -0.277056 -6.121591 0.000005 0.000001 0.000001 1.875555 4.593696 -5.610080 0.475107 -1.053477 -13.766679 0.000002 0.000000 0.000001 3.010621 7.854318 -15.112306 -0.730644 -0.599759 -19.676435 0.000003 -0.000004 0.000003 1.991106 6.229266 -23.395840 -0.839752 -0.247712 -17.526882 -0.000001 -0.000001 0.000003 0.000002 0.000001 0.000001 -4.920683 23.574268 1.114868 5.639805 -34.678045 56.669649 -22.473129 45.269606 21.754014 0.157401 31.484023 5.855139 55.149560 18.649531 -29.698267 -0.442579 -14.180523 7.313132 0.000001 0.000002 -0.000000 5.673363 7.585037 36.844188 1.050490 3.824466 68.900237 -0.000004 -0.000002 0.000001 -0.125689 1.886114 45.000780 -1.169015 3.204653 68.417636 0.000002 -0.000002 -0.000000 -5.312003 1.216642 58.508835 -0.745213 1.667572 48.011288 0.000000 -0.000001 0.000004 -7.756837 -9.376470 47.264014 -0.526033 1.541574 45.600522 -0.000001 0.000000 -0.000002 -0.000002 -0.000003 0.000001 0.000001 0.000001 -0.000000 0.000001 0.000001 -0.000000 0.000001 0.000001 -0.000000 0.000001 0.000001 -0.000000 0.000001 0.000001 -0.000000 0.000001 0.000001 0.000000 0.000001 -0.000001 -0.000000 0.000001 -0.000001 -0.000000 -0.000001 -0.000001 0.000000 -0.000000 -0.000001 -0.000000 
-1.906180 73.467972 1.398317 11.421995 -49.361152 10.944881 0.000000 -0.000000 -0.000000 -62.194910 29.267166 42.930700 45.973672 -21.778289 3.163273 -0.994065 1.741801 -10.380156 -0.000000 0.000002 0.000000 -0.000000 -0.000000 0.000000 0.000002 -0.000000 -0.000000 -30.186909 -1.525059 -26.154227 55.157138 3.752737 -7.139367 -32.535760 -5.036706 25.286812 0.000000 0.000004 0.000000 -0.000002 -0.000002 0.000003 0.000000 -0.000000 -0.000001 10.904470 2.620606 -2.016400 6.255495 5.389545 -4.873393 -5.586805 6.304864 -3.562657 3.088691 10.429334 -1.660138 -4.392341 23.236807 -3.332444 -0.000000 -0.000000 0.000000 -0.000000 -0.000000 0.000000 -0.000000 -0.000000 0.000000 -0.000000 -0.000000 0.000000 -0.000000 -0.000000 0.000000 -0.000000 -0.000000 0.000000 -0.000000 -0.000000 0.000000 -0.000000 -0.000000 0.000000 -0.000000 -0.000000 0.000000 -0.000000 -0.000000 0.000000 -0.000000 -0.000000 0.000000 -0.000000 -0.000000 0.000000 -0.000000 -0.000000 0.000000 -0.000000 -0.000000 0.000000 -0.000000 -0.000000 0.000000 -0.000000 -0.000000 0.000000 -0.000000 -0.000000 0.000000 -0.000000 -0.000000 0.000000 -0.000000 -0.000000 0.000000 -2.019133 -15.755240 -4.014504 -14.105693 -0.623447 -44.437641 -18.714607 -20.851309 -11.947981 2.441572 -3.378174 5.069741 18.508506 -9.519186 13.182183 -0.822721 11.681135 -8.439626 0.000001 -0.000001 0.000002 -1.233356 -5.834179 -2.091551 0.116404 -0.357566 -7.916965 0.000000 0.000000 0.000002 1.870191 4.511117 -6.816997 0.462236 -1.098900 -14.694414 0.000001 -0.000002 0.000000 2.992136 7.754497 -16.314023 -0.744032 -0.646156 -20.604031 0.000003 0.000000 -0.000001 1.966456 6.138869 -24.598184 -0.848849 -0.297643 -18.454229 0.000001 -0.000001 0.000001 -0.000001 -0.000003 0.000002 -4.713508 23.018403 0.781702 5.134860 -34.583106 56.017031 -23.493868 45.872114 23.282990 0.566494 28.887356 4.638300 55.149563 18.649528 -29.698260 -0.442580 -14.180525 7.313131 -0.000001 -0.000002 -0.000001 5.673360 7.585034 36.844185 1.050492 3.824466 68.900244 -0.000004 -0.000001 0.000001 -0.125694 1.886113 45.000780 -1.169018 3.204656 68.417636 0.000004 0.000000 -0.000003 -5.312009 1.216640 58.508842 -0.745214 1.667571 48.011288 0.000003 -0.000003 0.000006 -7.756835 -9.376478 47.264018 -0.526032 1.541574 45.600522 -0.000001 0.000000 0.000004 0.000001 0.000001 -0.000001 0.000000 0.000001 -0.000000 0.000000 0.000001 -0.000000 0.000000 0.000001 -0.000000 0.000000 0.000001 -0.000000 0.000000 0.000001 -0.000000 0.000000 0.000001 0.000000 -0.000001 0.000001 0.000000 -0.000001 0.000001 0.000000 -0.000000 0.000003 -0.000001 0.000000 -0.000000 -0.000000 
